<svg width="56" height="40" viewBox="0 0 56 40" fill="none" xmlns="http://www.w3.org/2000/svg">
<rect x="0.25" y="0.25" width="55.5" height="39.5" rx="1.75" fill="white" stroke="#E1E1E1" stroke-width="0.5"/>
<mask id="mask0" mask-type="alpha" maskUnits="userSpaceOnUse" x="0" y="0" width="56" height="40">
<rect width="56" height="40" rx="2" fill="white"/>
</mask>
<g mask="url(#mask0)">
<path fill-rule="evenodd" clip-rule="evenodd" d="M56 0H0V2.66667H56V0ZM56 5.33335H0V8.00002H56V5.33335ZM0 10.6666H56V13.3333H0V10.6666ZM56 16H0V18.6667H56V16ZM0 21.3334H56V24H0V21.3334ZM56 26.6666H0V29.3333H56V26.6666ZM0 32H56V34.6667H0V32ZM56 37.3334H0V40H56V37.3334Z" fill="#D02F44"/>
<rect width="24" height="18.6667" fill="#46467F"/>
<g filter="url(#filter0_d)">
<path fill-rule="evenodd" clip-rule="evenodd" d="M5.33341 3.99996C5.33341 4.73634 4.73646 5.33329 4.00008 5.33329C3.2637 5.33329 2.66675 4.73634 2.66675 3.99996C2.66675 3.26358 3.2637 2.66663 4.00008 2.66663C4.73646 2.66663 5.33341 3.26358 5.33341 3.99996ZM10.6667 3.99996C10.6667 4.73634 10.0698 5.33329 9.33342 5.33329C8.59704 5.33329 8.00008 4.73634 8.00008 3.99996C8.00008 3.26358 8.59704 2.66663 9.33342 2.66663C10.0698 2.66663 10.6667 3.26358 10.6667 3.99996ZM14.6667 5.33329C15.4031 5.33329 16.0001 4.73634 16.0001 3.99996C16.0001 3.26358 15.4031 2.66663 14.6667 2.66663C13.9304 2.66663 13.3334 3.26358 13.3334 3.99996C13.3334 4.73634 13.9304 5.33329 14.6667 5.33329ZM21.3334 3.99996C21.3334 4.73634 20.7365 5.33329 20.0001 5.33329C19.2637 5.33329 18.6667 4.73634 18.6667 3.99996C18.6667 3.26358 19.2637 2.66663 20.0001 2.66663C20.7365 2.66663 21.3334 3.26358 21.3334 3.99996ZM6.66675 7.99994C7.40313 7.99994 8.00008 7.40299 8.00008 6.66661C8.00008 5.93023 7.40313 5.33327 6.66675 5.33327C5.93037 5.33327 5.33341 5.93023 5.33341 6.66661C5.33341 7.40299 5.93037 7.99994 6.66675 7.99994ZM13.3334 6.66661C13.3334 7.40299 12.7365 7.99994 12.0001 7.99994C11.2637 7.99994 10.6667 7.40299 10.6667 6.66661C10.6667 5.93023 11.2637 5.33327 12.0001 5.33327C12.7365 5.33327 13.3334 5.93023 13.3334 6.66661ZM17.3334 7.99994C18.0698 7.99994 18.6667 7.40299 18.6667 6.66661C18.6667 5.93023 18.0698 5.33327 17.3334 5.33327C16.597 5.33327 16.0001 5.93023 16.0001 6.66661C16.0001 7.40299 16.597 7.99994 17.3334 7.99994ZM21.3334 9.33331C21.3334 10.0697 20.7365 10.6666 20.0001 10.6666C19.2637 10.6666 18.6667 10.0697 18.6667 9.33331C18.6667 8.59693 19.2637 7.99998 20.0001 7.99998C20.7365 7.99998 21.3334 8.59693 21.3334 9.33331ZM14.6667 10.6666C15.4031 10.6666 16.0001 10.0697 16.0001 9.33331C16.0001 8.59693 15.4031 7.99998 14.6667 7.99998C13.9304 7.99998 13.3334 8.59693 13.3334 9.33331C13.3334 10.0697 13.9304 10.6666 14.6667 10.6666ZM10.6667 9.33331C10.6667 10.0697 10.0698 10.6666 9.33342 10.6666C8.59704 10.6666 8.00008 10.0697 8.00008 9.33331C8.00008 8.59693 8.59704 7.99998 9.33342 7.99998C10.0698 7.99998 10.6667 8.59693 10.6667 9.33331ZM4.00008 10.6666C4.73646 10.6666 5.33341 10.0697 5.33341 9.33331C5.33341 8.59693 4.73646 7.99998 4.00008 7.99998C3.2637 7.99998 2.66675 8.59693 2.66675 9.33331C2.66675 10.0697 3.2637 10.6666 4.00008 10.6666ZM8.00008 12C8.00008 12.7363 7.40313 13.3333 6.66675 13.3333C5.93037 13.3333 5.33341 12.7363 5.33341 12C5.33341 11.2636 5.93037 10.6666 6.66675 10.6666C7.40313 10.6666 8.00008 11.2636 8.00008 12ZM12.0001 13.3333C12.7365 13.3333 13.3334 12.7363 13.3334 12C13.3334 11.2636 12.7365 10.6666 12.0001 10.6666C11.2637 10.6666 10.6667 11.2636 10.6667 12C10.6667 12.7363 11.2637 13.3333 12.0001 13.3333ZM18.6667 12C18.6667 12.7363 18.0698 13.3333 17.3334 13.3333C16.597 13.3333 16.0001 12.7363 16.0001 12C16.0001 11.2636 16.597 10.6666 17.3334 10.6666C18.0698 10.6666 18.6667 11.2636 18.6667 12ZM20.0001 15.9999C20.7365 15.9999 21.3334 15.403 21.3334 14.6666C21.3334 13.9302 20.7365 13.3333 20.0001 13.3333C19.2637 13.3333 18.6667 13.9302 18.6667 14.6666C18.6667 15.403 19.2637 15.9999 20.0001 15.9999ZM16.0001 14.6666C16.0001 15.403 15.4031 15.9999 14.6667 15.9999C13.9304 15.9999 13.3334 15.403 13.3334 14.6666C13.3334 13.9302 13.9304 13.3333 14.6667 13.3333C15.4031 13.3333 16.0001 13.9302 16.0001 14.6666ZM9.33342 15.9999C10.0698 15.9999 10.6667 15.403 10.6667 14.6666C10.6667 13.9302 10.0698 13.3333 9.33342 13.3333C8.59704 13.3333 8.00008 13.9302 8.00008 14.6666C8.00008 15.403 8.59704 15.9999 9.33342 15.9999ZM5.33341 14.6666C5.33341 15.403 4.73646 15.9999 4.00008 15.9999C3.2637 15.9999 2.66675 15.403 2.66675 14.6666C2.66675 13.9302 3.2637 13.3333 4.00008 13.3333C4.73646 13.3333 5.33341 13.9302 5.33341 14.6666Z" fill="url(#paint0_linear)"/>
</g>
</g>
<defs>
<filter id="filter0_d" x="2.66675" y="2.66663" width="18.6667" height="14.3333" filterUnits="userSpaceOnUse" color-interpolation-filters="sRGB">
<feFlood flood-opacity="0" result="BackgroundImageFix"/>
<feColorMatrix in="SourceAlpha" type="matrix" values="0 0 0 0 0 0 0 0 0 0 0 0 0 0 0 0 0 0 127 0"/>
<feOffset dy="1"/>
<feColorMatrix type="matrix" values="0 0 0 0 0 0 0 0 0 0 0 0 0 0 0 0 0 0 0.06 0"/>
<feBlend mode="normal" in2="BackgroundImageFix" result="effect1_dropShadow"/>
<feBlend mode="normal" in="SourceGraphic" in2="effect1_dropShadow" result="shape"/>
</filter>
<linearGradient id="paint0_linear" x1="2.66675" y1="2.66663" x2="2.66675" y2="16" gradientUnits="userSpaceOnUse">
<stop stop-color="white"/>
<stop offset="1" stop-color="#F0F0F0"/>
</linearGradient>
</defs>
</svg>
